<?xml version="1.0" encoding="UTF-8" standalone="no"?>
<!-- Generator: Adobe Illustrator 22.0.1, SVG Export Plug-In . SVG Version: 6.00 Build 0)  -->

<svg
   xmlns:dc="http://purl.org/dc/elements/1.1/"
   xmlns:cc="http://creativecommons.org/ns#"
   xmlns:rdf="http://www.w3.org/1999/02/22-rdf-syntax-ns#"
   xmlns:svg="http://www.w3.org/2000/svg"
   xmlns="http://www.w3.org/2000/svg"
   xmlns:sodipodi="http://sodipodi.sourceforge.net/DTD/sodipodi-0.dtd"
   xmlns:inkscape="http://www.inkscape.org/namespaces/inkscape"
   version="1.1"
   id="Layer_1"
   x="0px"
   y="0px"
   viewBox="0 0 507.29997 83.699999"
   xml:space="preserve"
   sodipodi:docname="cpp18_logo_white_green.svg"
   width="507.29999"
   height="83.699997"
   inkscape:version="0.92.2 5c3e80d, 2017-08-06"><metadata
     id="metadata1025"><rdf:RDF><cc:Work
         rdf:about=""><dc:format>image/svg+xml</dc:format><dc:type
           rdf:resource="http://purl.org/dc/dcmitype/StillImage" /><dc:title></dc:title></cc:Work></rdf:RDF></metadata><defs
     id="defs1023" /><sodipodi:namedview
     pagecolor="#ffffff"
     bordercolor="#666666"
     borderopacity="1"
     objecttolerance="10"
     gridtolerance="10"
     guidetolerance="10"
     inkscape:pageopacity="0"
     inkscape:pageshadow="2"
     inkscape:window-width="2558"
     inkscape:window-height="1438"
     id="namedview1021"
     showgrid="false"
     fit-margin-top="0"
     fit-margin-left="0"
     fit-margin-right="0"
     fit-margin-bottom="0"
     inkscape:zoom="1.8696456"
     inkscape:cx="288.37881"
     inkscape:cy="42.350006"
     inkscape:window-x="0"
     inkscape:window-y="0"
     inkscape:window-maximized="0"
     inkscape:current-layer="g1018" /><style
     type="text/css"
     id="style940">
	.st0{fill:#0000FF;}
	.st1{fill:#6AFFC2;}
</style><g
     id="g984"
     transform="translate(-166,-256.3)"><path
       class="st0"
       d="m 297.4,313.9 c 0,2.4 -0.8,4.4 -2.4,6 -1.7,1.7 -3.9,2.5 -6.6,2.5 h -5.2 v 10.3 h -5.3 v -27.2 h 10.6 c 2.7,0 4.9,0.8 6.6,2.5 1.5,1.6 2.3,3.5 2.3,5.9 z m -5.3,0 c 0,-1.1 -0.4,-2 -1.1,-2.7 -0.7,-0.7 -1.7,-1 -2.9,-1 h -5 v 7.5 h 5 c 1.2,0 2.2,-0.3 2.9,-1 0.7,-0.7 1.1,-1.6 1.1,-2.8 z"
       id="path942"
       inkscape:connector-curvature="0"
       style="fill:#6affc2;fill-opacity:1" /><path
       class="st0"
       d="m 316.5,326.4 c 0,2.1 -0.8,3.7 -2.4,4.9 -1.5,1.1 -3.5,1.6 -6,1.6 -1.9,0 -3.4,-0.2 -4.6,-0.5 -1.5,-0.4 -2.8,-1.2 -3.9,-2.4 l 3.3,-3.3 c 1.2,1.2 3,1.9 5.3,1.9 2.3,0 3.5,-0.7 3.5,-2.1 0,-1.1 -0.7,-1.7 -2.1,-1.8 l -3.1,-0.3 c -3.9,-0.4 -5.8,-2.2 -5.8,-5.6 0,-2 0.8,-3.6 2.3,-4.7 1.4,-1.1 3.2,-1.6 5.4,-1.6 3.4,0 6,0.8 7.6,2.3 l -3.1,3.1 c -1,-0.9 -2.5,-1.3 -4.6,-1.3 -1.9,0 -2.8,0.6 -2.8,1.9 0,1 0.7,1.6 2.1,1.7 l 3.1,0.3 c 3.9,0.4 5.8,2.4 5.8,5.9 z"
       id="path944"
       inkscape:connector-curvature="0"
       style="fill:#6affc2;fill-opacity:1" /><path
       class="st0"
       d="m 336.6,312.8 -8.5,23.1 c -0.4,1.1 -0.9,2 -1.5,2.6 -1,1 -2.4,1.5 -4.3,1.5 h -2 v -4.5 h 1.1 c 0.7,0 1.3,-0.1 1.6,-0.4 0.3,-0.3 0.6,-0.7 0.9,-1.4 l 0.8,-2.4 -6.8,-18.5 h 5.2 l 4.1,12.3 4,-12.3 z"
       id="path946"
       inkscape:connector-curvature="0"
       style="fill:#6affc2;fill-opacity:1" /><path
       class="st0"
       d="m 354.1,330.2 c -1.7,1.8 -3.9,2.7 -6.6,2.7 -2.4,0 -4.4,-0.7 -5.9,-2.1 -2,-1.8 -3,-4.5 -3,-8.1 0,-3.6 1,-6.4 3,-8.1 1.5,-1.4 3.5,-2.1 5.9,-2.1 2.7,0 4.9,0.9 6.6,2.7 l -3.4,3.4 c -1,-1 -2,-1.6 -3.2,-1.6 -1.2,0 -2.1,0.4 -2.8,1.3 -0.7,0.9 -1.1,2.3 -1.1,4.4 0,2 0.4,3.5 1.1,4.4 0.7,0.9 1.7,1.3 2.8,1.3 1.2,0 2.2,-0.5 3.2,-1.6 z"
       id="path948"
       inkscape:connector-curvature="0"
       style="fill:#6affc2;fill-opacity:1" /><path
       class="st0"
       d="m 374.3,332.7 h -5 v -12.2 c 0,-1.2 -0.3,-2.1 -1,-2.8 -0.6,-0.5 -1.3,-0.8 -2.2,-0.8 -0.9,0 -1.6,0.3 -2.2,0.8 -0.7,0.6 -1,1.6 -1,2.8 v 12.2 h -5 v -27.2 h 5 v 9.1 c 1.3,-1.4 2.9,-2.1 4.8,-2.1 2.1,0 3.8,0.7 5,2.1 1.1,1.3 1.7,3 1.7,5.2 v 12.9 z"
       id="path950"
       inkscape:connector-curvature="0"
       style="fill:#6affc2;fill-opacity:1" /><path
       class="st0"
       d="m 396.1,324.3 h -12.5 c 0,1.3 0.4,2.4 1.2,3.2 0.8,0.8 1.8,1.2 3.2,1.2 1.8,0 3.3,-0.6 4.5,-1.9 l 3,2.9 c -1.1,1.1 -2.2,1.9 -3.2,2.3 -1.2,0.5 -2.7,0.8 -4.4,0.8 -6.1,0 -9.2,-3.4 -9.2,-10.2 0,-3.2 0.8,-5.7 2.4,-7.5 1.6,-1.8 3.6,-2.6 6.3,-2.6 2.7,0 4.8,0.9 6.4,2.7 1.5,1.7 2.3,4 2.3,6.8 z m -4.9,-3.4 c 0,-0.8 -0.2,-1.5 -0.5,-2.1 -0.6,-1.4 -1.7,-2.1 -3.3,-2.1 -1.6,0 -2.7,0.7 -3.3,2.1 -0.3,0.6 -0.4,1.3 -0.5,2.1 z"
       id="path952"
       inkscape:connector-curvature="0"
       style="fill:#6affc2;fill-opacity:1" /><path
       class="st0"
       d="m 416.6,332.7 h -4.9 v -1.9 c -1.2,1.4 -2.9,2.1 -4.9,2.1 -2.1,0 -3.7,-0.6 -4.9,-1.8 -0.9,-0.9 -1.5,-2.2 -1.8,-3.8 -0.2,-1 -0.3,-2.5 -0.3,-4.6 0,-2 0.1,-3.5 0.3,-4.6 0.3,-1.7 0.9,-2.9 1.8,-3.8 1.2,-1.2 2.8,-1.8 4.8,-1.8 2,0 3.6,0.7 4.8,2 v -9.1 h 5 v 27.3 z m -5,-10 c 0,-1.9 -0.2,-3.2 -0.6,-4.1 -0.5,-1.1 -1.4,-1.6 -2.8,-1.6 -1.4,0 -2.4,0.6 -2.9,1.9 -0.3,0.8 -0.4,2 -0.4,3.8 0,1.8 0.1,3 0.4,3.8 0.5,1.3 1.5,2 2.9,2 1.4,0 2.3,-0.5 2.8,-1.6 0.4,-0.9 0.6,-2.3 0.6,-4.2 z"
       id="path954"
       inkscape:connector-curvature="0"
       style="fill:#6affc2;fill-opacity:1" /><path
       class="st0"
       d="M 438.5,324.3 H 426 c 0,1.3 0.4,2.4 1.2,3.2 0.8,0.8 1.8,1.2 3.2,1.2 1.8,0 3.3,-0.6 4.5,-1.9 l 3,2.9 c -1.1,1.1 -2.2,1.9 -3.2,2.3 -1.2,0.5 -2.7,0.8 -4.4,0.8 -6.1,0 -9.2,-3.4 -9.2,-10.2 0,-3.2 0.8,-5.7 2.4,-7.5 1.6,-1.8 3.6,-2.6 6.3,-2.6 2.7,0 4.8,0.9 6.4,2.7 1.5,1.7 2.3,4 2.3,6.8 z m -4.9,-3.4 c 0,-0.8 -0.2,-1.5 -0.5,-2.1 -0.6,-1.4 -1.7,-2.1 -3.3,-2.1 -1.6,0 -2.7,0.7 -3.3,2.1 -0.3,0.6 -0.4,1.3 -0.5,2.1 z"
       id="path956"
       inkscape:connector-curvature="0"
       style="fill:#6affc2;fill-opacity:1" /><path
       class="st0"
       d="m 451.6,332.7 h -2.8 c -1.9,0 -3.4,-0.6 -4.4,-1.8 -0.9,-1 -1.4,-2.3 -1.4,-3.9 v -21.5 h 5 v 21.2 c 0,1.2 0.6,1.8 1.7,1.8 h 1.9 z"
       id="path958"
       inkscape:connector-curvature="0"
       style="fill:#6affc2;fill-opacity:1" /><path
       class="st0"
       d="m 461.1,307.1 c 0,0.9 -0.3,1.6 -0.9,2.2 -0.6,0.6 -1.3,0.9 -2.2,0.9 -0.9,0 -1.6,-0.3 -2.2,-0.9 -0.6,-0.6 -0.9,-1.4 -0.9,-2.2 0,-0.8 0.3,-1.6 0.9,-2.2 0.6,-0.6 1.4,-0.9 2.2,-0.9 0.8,0 1.6,0.3 2.2,0.9 0.6,0.6 0.9,1.4 0.9,2.2 z m -0.6,25.6 h -5 v -19.9 h 5 z"
       id="path960"
       inkscape:connector-curvature="0"
       style="fill:#6affc2;fill-opacity:1" /><path
       class="st0"
       d="m 480.6,330.2 c -1.7,1.8 -3.9,2.7 -6.6,2.7 -2.4,0 -4.4,-0.7 -5.9,-2.1 -2,-1.8 -3,-4.5 -3,-8.1 0,-3.6 1,-6.4 3,-8.1 1.5,-1.4 3.5,-2.1 5.9,-2.1 2.7,0 4.9,0.9 6.6,2.7 l -3.4,3.4 c -1,-1 -2,-1.6 -3.2,-1.6 -1.2,0 -2.1,0.4 -2.8,1.3 -0.7,0.9 -1.1,2.3 -1.1,4.4 0,2 0.4,3.5 1.1,4.4 0.7,0.9 1.7,1.3 2.8,1.3 1.2,0 2.2,-0.5 3.2,-1.6 z"
       id="path962"
       inkscape:connector-curvature="0"
       style="fill:#6affc2;fill-opacity:1" /><path
       class="st0"
       d="m 513.2,313.9 c 0,2.4 -0.8,4.4 -2.4,6 -1.7,1.7 -3.9,2.5 -6.6,2.5 H 499 v 10.3 h -5.3 v -27.2 h 10.6 c 2.7,0 4.9,0.8 6.6,2.5 1.5,1.6 2.3,3.5 2.3,5.9 z m -5.3,0 c 0,-1.1 -0.4,-2 -1.1,-2.7 -0.7,-0.7 -1.7,-1 -2.9,-1 h -5 v 7.5 h 5 c 1.2,0 2.2,-0.3 2.9,-1 0.7,-0.7 1.1,-1.6 1.1,-2.8 z"
       id="path964"
       inkscape:connector-curvature="0"
       style="fill:#6affc2;fill-opacity:1" /><path
       class="st0"
       d="m 532.4,326.4 c 0,2.1 -0.8,3.7 -2.4,4.9 -1.5,1.1 -3.5,1.6 -6,1.6 -1.9,0 -3.4,-0.2 -4.6,-0.5 -1.5,-0.4 -2.8,-1.2 -3.9,-2.4 l 3.3,-3.3 c 1.2,1.2 3,1.9 5.3,1.9 2.3,0 3.5,-0.7 3.5,-2.1 0,-1.1 -0.7,-1.7 -2.1,-1.8 l -3.1,-0.3 c -3.9,-0.4 -5.8,-2.2 -5.8,-5.6 0,-2 0.8,-3.6 2.3,-4.7 1.4,-1.1 3.2,-1.6 5.4,-1.6 3.4,0 6,0.8 7.6,2.3 l -3.1,3.1 c -1,-0.9 -2.5,-1.3 -4.6,-1.3 -1.9,0 -2.8,0.6 -2.8,1.9 0,1 0.7,1.6 2.1,1.7 l 3.1,0.3 c 3.8,0.4 5.8,2.4 5.8,5.9 z"
       id="path966"
       inkscape:connector-curvature="0"
       style="fill:#6affc2;fill-opacity:1" /><path
       class="st0"
       d="m 552.4,312.8 -8.5,23.1 c -0.4,1.1 -0.9,2 -1.5,2.6 -1,1 -2.4,1.5 -4.3,1.5 h -2 v -4.5 h 1.1 c 0.7,0 1.3,-0.1 1.6,-0.4 0.3,-0.3 0.6,-0.7 0.9,-1.4 l 0.8,-2.4 -6.8,-18.5 h 5.2 l 4.1,12.3 4,-12.3 z"
       id="path968"
       inkscape:connector-curvature="0"
       style="fill:#6affc2;fill-opacity:1" /><path
       class="st0"
       d="m 569.9,330.2 c -1.7,1.8 -3.9,2.7 -6.6,2.7 -2.4,0 -4.4,-0.7 -5.9,-2.1 -2,-1.8 -3,-4.5 -3,-8.1 0,-3.6 1,-6.4 3,-8.1 1.5,-1.4 3.5,-2.1 5.9,-2.1 2.7,0 4.9,0.9 6.6,2.7 l -3.4,3.4 c -1,-1 -2,-1.6 -3.2,-1.6 -1.2,0 -2.1,0.4 -2.8,1.3 -0.7,0.9 -1.1,2.3 -1.1,4.4 0,2 0.4,3.5 1.1,4.4 0.7,0.9 1.7,1.3 2.8,1.3 1.2,0 2.2,-0.5 3.2,-1.6 z"
       id="path970"
       inkscape:connector-curvature="0"
       style="fill:#6affc2;fill-opacity:1" /><path
       class="st0"
       d="m 590.2,332.7 h -5 v -12.2 c 0,-1.2 -0.3,-2.1 -1,-2.8 -0.6,-0.5 -1.3,-0.8 -2.2,-0.8 -0.9,0 -1.6,0.3 -2.2,0.8 -0.7,0.6 -1,1.6 -1,2.8 v 12.2 h -5 v -27.2 h 5 v 9.1 c 1.3,-1.4 2.9,-2.1 4.8,-2.1 2.1,0 3.8,0.7 5,2.1 1.1,1.3 1.7,3 1.7,5.2 v 12.9 z"
       id="path972"
       inkscape:connector-curvature="0"
       style="fill:#6affc2;fill-opacity:1" /><path
       class="st0"
       d="m 601.1,307.1 c 0,0.9 -0.3,1.6 -0.9,2.2 -0.6,0.6 -1.3,0.9 -2.2,0.9 -0.9,0 -1.6,-0.3 -2.2,-0.9 -0.6,-0.6 -0.9,-1.4 -0.9,-2.2 0,-0.8 0.3,-1.6 0.9,-2.2 0.6,-0.6 1.4,-0.9 2.2,-0.9 0.9,0 1.6,0.3 2.2,0.9 0.6,0.6 0.9,1.4 0.9,2.2 z m -0.6,25.6 h -5 v -19.9 h 5 z"
       id="path974"
       inkscape:connector-curvature="0"
       style="fill:#6affc2;fill-opacity:1" /><path
       class="st0"
       d="m 621.2,332.7 h -4.9 V 331 c -1.3,1.3 -2.9,1.9 -4.9,1.9 -2.2,0 -3.9,-0.6 -5.1,-1.7 -1.1,-1.1 -1.7,-2.7 -1.7,-4.5 0,-1.7 0.6,-3.1 1.7,-4.2 1.2,-1.1 2.8,-1.6 5.1,-1.6 h 4.7 v -1 c 0,-2.1 -1.2,-3.1 -3.7,-3.1 -1.6,0 -2.9,0.5 -3.8,1.6 l -3.2,-3.1 c 0.9,-1 2,-1.8 3.1,-2.2 1,-0.4 2.4,-0.6 4.1,-0.6 5.7,0 8.5,2.3 8.5,7 v 13.2 z m -5.1,-7.4 v -1.1 h -3.9 c -1.9,0 -2.8,0.8 -2.8,2.3 0,1.5 1,2.3 2.9,2.3 1.7,0 2.8,-0.4 3.4,-1.3 0.3,-0.4 0.4,-1.1 0.4,-2.2 z"
       id="path976"
       inkscape:connector-curvature="0"
       style="fill:#6affc2;fill-opacity:1" /><path
       class="st0"
       d="m 635.5,332.7 h -2.7 c -1.9,0 -3.4,-0.6 -4.4,-1.8 -0.9,-1 -1.4,-2.3 -1.4,-3.9 v -9.9 h -2.1 v -3.8 h 2.1 v -5.9 h 5 v 5.9 h 3.5 v 3.8 H 632 v 9.6 c 0,1.2 0.6,1.8 1.7,1.8 h 1.8 z"
       id="path978"
       inkscape:connector-curvature="0"
       style="fill:#6affc2;fill-opacity:1" /><path
       class="st0"
       d="m 654.5,314.4 -3.7,3.8 c -0.8,-0.8 -1.7,-1.2 -2.6,-1.2 -0.8,0 -1.6,0.3 -2.2,0.9 -0.7,0.7 -1,1.6 -1,2.8 v 12 h -5 v -19.9 h 4.9 v 1.9 c 1.2,-1.4 2.9,-2.1 5,-2.1 1.8,-0.1 3.4,0.6 4.6,1.8 z"
       id="path980"
       inkscape:connector-curvature="0"
       style="fill:#6affc2;fill-opacity:1" /><path
       class="st0"
       d="m 673.3,312.8 -8.5,23.1 c -0.4,1.1 -0.9,2 -1.5,2.6 -1,1 -2.4,1.5 -4.3,1.5 h -2 v -4.5 h 1.1 c 0.7,0 1.3,-0.1 1.6,-0.4 0.3,-0.3 0.6,-0.7 0.9,-1.4 l 0.8,-2.4 -6.8,-18.5 h 5.2 l 4.1,12.3 4,-12.3 z"
       id="path982"
       inkscape:connector-curvature="0"
       style="fill:#6affc2;fill-opacity:1" /></g><g
     id="g1010"
     transform="translate(-166,-256.3)"><path
       class="st0"
       d="m 294.5,291 c -2.1,2.1 -4.7,3.1 -7.6,3.1 -2.9,0 -5.4,-1 -7.3,-3 -1.2,-1.2 -2,-2.8 -2.4,-4.7 -0.2,-1.1 -0.3,-3.2 -0.3,-6.2 0,-3 0.1,-5 0.3,-6.2 0.4,-1.9 1.1,-3.5 2.4,-4.7 2,-2 4.4,-3 7.3,-3 2.9,0 5.4,1 7.6,3.1 l -3.5,3.5 c -1.3,-1.3 -2.6,-1.9 -4.1,-1.9 -1.6,0 -2.8,0.6 -3.7,1.8 -0.7,1 -1,3.4 -1,7.3 0,2.1 0,3.4 0.1,4 0.2,1.7 0.6,2.9 1.3,3.7 0.8,0.9 2,1.4 3.4,1.4 1.4,0 2.8,-0.6 4.1,-1.9 z"
       id="path986"
       inkscape:connector-curvature="0"
       style="fill:#6affc2;fill-opacity:1" /><path
       class="st0"
       d="m 314.9,283.9 c 0,1.9 -0.2,3.4 -0.5,4.6 -0.3,1.2 -0.9,2.3 -1.8,3.2 -1.6,1.6 -3.6,2.4 -6.2,2.4 -2.6,0 -4.6,-0.8 -6.2,-2.4 -0.9,-0.9 -1.5,-2 -1.8,-3.2 -0.3,-1.1 -0.5,-2.6 -0.5,-4.6 0,-3.6 0.8,-6.2 2.3,-7.8 1.5,-1.6 3.6,-2.4 6.1,-2.4 2.6,0 4.6,0.8 6.2,2.4 1.7,1.6 2.4,4.2 2.4,7.8 z m -5,0 c 0,-2.4 -0.4,-4.1 -1.1,-4.8 -0.6,-0.6 -1.3,-0.9 -2.3,-0.9 -0.9,0 -1.7,0.3 -2.3,0.9 -0.8,0.8 -1.1,2.4 -1.1,4.8 0,2.5 0.4,4.1 1.1,4.9 0.6,0.6 1.3,0.9 2.3,0.9 1,0 1.7,-0.3 2.3,-0.9 0.7,-0.8 1.1,-2.4 1.1,-4.9 z"
       id="path988"
       inkscape:connector-curvature="0"
       style="fill:#6affc2;fill-opacity:1" /><path
       class="st0"
       d="m 328.1,293.9 h -2.8 c -1.9,0 -3.4,-0.6 -4.4,-1.8 -0.9,-1 -1.4,-2.3 -1.4,-3.9 v -21.5 h 5 v 21.2 c 0,1.2 0.6,1.8 1.7,1.8 h 1.9 z"
       id="path990"
       inkscape:connector-curvature="0"
       style="fill:#6affc2;fill-opacity:1" /><path
       class="st0"
       d="m 340.6,293.9 h -2.8 c -1.9,0 -3.4,-0.6 -4.4,-1.8 -0.9,-1 -1.4,-2.3 -1.4,-3.9 v -21.5 h 5 v 21.2 c 0,1.2 0.6,1.8 1.7,1.8 h 1.9 z"
       id="path992"
       inkscape:connector-curvature="0"
       style="fill:#6affc2;fill-opacity:1" /><path
       class="st0"
       d="m 360.6,283.9 c 0,1.9 -0.2,3.4 -0.5,4.6 -0.3,1.2 -0.9,2.3 -1.8,3.2 -1.6,1.6 -3.6,2.4 -6.2,2.4 -2.6,0 -4.6,-0.8 -6.2,-2.4 -0.9,-0.9 -1.5,-2 -1.8,-3.2 -0.3,-1.1 -0.5,-2.6 -0.5,-4.6 0,-3.6 0.8,-6.2 2.3,-7.8 1.5,-1.6 3.6,-2.4 6.1,-2.4 2.6,0 4.6,0.8 6.2,2.4 1.6,1.6 2.4,4.2 2.4,7.8 z m -5,0 c 0,-2.4 -0.4,-4.1 -1.1,-4.8 -0.6,-0.6 -1.3,-0.9 -2.3,-0.9 -0.9,0 -1.7,0.3 -2.3,0.9 -0.8,0.8 -1.1,2.4 -1.1,4.8 0,2.5 0.4,4.1 1.1,4.9 0.6,0.6 1.3,0.9 2.3,0.9 1,0 1.7,-0.3 2.3,-0.9 0.7,-0.8 1.1,-2.4 1.1,-4.9 z"
       id="path994"
       inkscape:connector-curvature="0"
       style="fill:#6affc2;fill-opacity:1" /><path
       class="st0"
       d="m 381.2,301.2 h -5 v -9.1 c -1.2,1.3 -2.8,2 -4.9,2 -2,0 -3.7,-0.6 -4.9,-1.8 -0.9,-0.9 -1.5,-2.2 -1.8,-3.8 -0.2,-1 -0.3,-2.5 -0.3,-4.6 0,-2 0.1,-3.5 0.3,-4.6 0.3,-1.7 0.9,-2.9 1.8,-3.8 1.2,-1.2 2.8,-1.8 4.9,-1.8 2,0 3.7,0.7 4.9,2.1 v -1.9 h 4.9 v 27.3 z m -4.9,-17.3 c 0,-1.9 -0.2,-3.2 -0.6,-4.1 -0.5,-1.1 -1.4,-1.6 -2.8,-1.6 -1.4,0 -2.4,0.6 -2.9,1.9 -0.3,0.8 -0.4,2 -0.4,3.8 0,1.8 0.1,3 0.4,3.8 0.5,1.3 1.5,2 2.9,2 1.4,0 2.3,-0.5 2.8,-1.6 0.4,-1 0.6,-2.3 0.6,-4.2 z"
       id="path996"
       inkscape:connector-curvature="0"
       style="fill:#6affc2;fill-opacity:1" /><path
       class="st0"
       d="m 403.1,293.9 h -4.9 V 292 c -1.3,1.4 -3,2.1 -5,2.1 -2,0 -3.5,-0.6 -4.7,-1.8 -1.4,-1.4 -2,-3.2 -2,-5.7 v -12.7 h 5 V 286 c 0,1.3 0.4,2.2 1.1,2.8 0.6,0.5 1.3,0.8 2.2,0.8 0.9,0 1.7,-0.3 2.2,-0.8 0.7,-0.6 1.1,-1.6 1.1,-2.8 v -12.1 h 5 z"
       id="path998"
       inkscape:connector-curvature="0"
       style="fill:#6affc2;fill-opacity:1" /><path
       class="st0"
       d="m 414.3,268.3 c 0,0.9 -0.3,1.6 -0.9,2.2 -0.6,0.6 -1.3,0.9 -2.2,0.9 -0.9,0 -1.6,-0.3 -2.2,-0.9 -0.6,-0.6 -0.9,-1.4 -0.9,-2.2 0,-0.8 0.3,-1.6 0.9,-2.2 0.6,-0.6 1.4,-0.9 2.2,-0.9 0.8,0 1.6,0.3 2.2,0.9 0.6,0.6 0.9,1.3 0.9,2.2 z m -0.6,25.6 h -5 V 274 h 5 z"
       id="path1000"
       inkscape:connector-curvature="0"
       style="fill:#6affc2;fill-opacity:1" /><path
       class="st0"
       d="m 435.6,293.9 h -4.9 V 292 c -1.3,1.4 -3,2.1 -5,2.1 -2,0 -3.5,-0.6 -4.7,-1.8 -1.4,-1.4 -2,-3.2 -2,-5.7 v -12.7 h 5 V 286 c 0,1.3 0.4,2.2 1.1,2.8 0.6,0.5 1.3,0.8 2.2,0.8 0.9,0 1.7,-0.3 2.2,-0.8 0.7,-0.6 1.1,-1.6 1.1,-2.8 v -12.1 h 5 z"
       id="path1002"
       inkscape:connector-curvature="0"
       style="fill:#6affc2;fill-opacity:1" /><path
       class="st0"
       d="m 469.3,293.9 h -5 v -12.1 c 0,-1.2 -0.4,-2.2 -1.1,-2.8 -0.6,-0.5 -1.3,-0.8 -2.2,-0.8 -0.9,0 -1.6,0.3 -2.2,0.8 -0.7,0.6 -1.1,1.6 -1.1,2.8 V 294 h -5 v -12.1 c 0,-1.2 -0.4,-2.2 -1.1,-2.8 -0.6,-0.5 -1.3,-0.8 -2.2,-0.8 -0.9,0 -1.7,0.3 -2.3,0.8 -0.7,0.6 -1.1,1.6 -1.1,2.8 V 294 h -5 v -19.9 h 4.9 v 1.8 c 1.3,-1.4 3,-2.1 5,-2.1 2.3,0 4.1,0.8 5.3,2.5 1.6,-1.7 3.6,-2.5 6,-2.5 2.1,0 3.7,0.6 4.9,1.8 1.5,1.5 2.2,3.3 2.2,5.7 z"
       id="path1004"
       inkscape:connector-curvature="0"
       style="fill:#6affc2;fill-opacity:1" /><path
       class="st0"
       d="m 499.6,283.9 c 0,1.9 -0.2,3.4 -0.5,4.6 -0.3,1.2 -0.9,2.3 -1.8,3.2 -1.6,1.6 -3.6,2.4 -6.2,2.4 -2.6,0 -4.6,-0.8 -6.2,-2.4 -0.9,-0.9 -1.5,-2 -1.8,-3.2 -0.3,-1.1 -0.5,-2.6 -0.5,-4.6 0,-3.6 0.8,-6.2 2.3,-7.8 1.5,-1.6 3.6,-2.4 6.1,-2.4 2.6,0 4.6,0.8 6.2,2.4 1.6,1.6 2.4,4.2 2.4,7.8 z m -5,0 c 0,-2.4 -0.4,-4.1 -1.1,-4.8 -0.6,-0.6 -1.3,-0.9 -2.3,-0.9 -0.9,0 -1.7,0.3 -2.3,0.9 -0.8,0.8 -1.1,2.4 -1.1,4.8 0,2.5 0.4,4.1 1.1,4.9 0.6,0.6 1.3,0.9 2.3,0.9 1,0 1.7,-0.3 2.3,-0.9 0.7,-0.8 1.1,-2.4 1.1,-4.9 z"
       id="path1006"
       inkscape:connector-curvature="0"
       style="fill:#6affc2;fill-opacity:1" /><path
       class="st0"
       d="m 520.9,293.9 h -5 v -12.1 c 0,-1.2 -0.4,-2.2 -1.1,-2.8 -0.6,-0.5 -1.3,-0.8 -2.2,-0.8 -0.9,0 -1.7,0.3 -2.2,0.8 -0.7,0.6 -1.1,1.6 -1.1,2.8 v 12.1 h -5 V 274 h 4.9 v 1.8 c 1.3,-1.4 3,-2.1 5,-2.1 2,0 3.5,0.6 4.7,1.8 1.4,1.4 2,3.2 2,5.7 z"
       id="path1008"
       inkscape:connector-curvature="0"
       style="fill:#6affc2;fill-opacity:1" /></g><g
     id="g1018"
     transform="translate(-166,-256.3)"><path
       class="st1"
       d="M 179.1,278.2 H 166 v -11.8 l 13.1,-10.1 z"
       id="path1012"
       inkscape:connector-curvature="0"
       style="fill:#ffffff;fill-opacity:1" /><path
       class="st1"
       d="M 214.4,334.7 H 201.8 V 279.8 L 188,291.9 v -13.4 l 13.8,-12.1 h 12.6 z"
       id="path1014"
       inkscape:connector-curvature="0"
       style="fill:#ffffff;fill-opacity:1" /><path
       class="st1"
       d="m 263.7,314.9 c 0,6.4 -2.1,11.5 -6.4,15.2 -4,3.5 -9.1,5.3 -15.5,5.3 -6.4,0 -11.5,-1.8 -15.5,-5.3 -4.3,-3.7 -6.4,-8.8 -6.4,-15.2 0,-6.5 2.8,-11.6 8.5,-15.4 -5.1,-3.6 -7.7,-8.3 -7.7,-14.2 0,-5.9 2.1,-10.7 6.2,-14.3 4,-3.5 8.9,-5.2 14.8,-5.2 5.9,0 10.8,1.7 14.8,5.2 4.1,3.6 6.1,8.4 6.1,14.3 0,5.9 -2.6,10.6 -7.7,14.2 6,3.8 8.8,9 8.8,15.4 z m -12.5,-0.2 c 0,-2.6 -0.9,-4.9 -2.7,-6.7 -1.8,-1.9 -4,-2.8 -6.6,-2.8 -2.6,0 -4.8,0.9 -6.6,2.8 -1.8,1.9 -2.7,4.1 -2.7,6.7 0,2.6 0.9,4.8 2.7,6.7 1.8,1.8 4,2.7 6.6,2.7 2.6,0 4.8,-0.9 6.6,-2.7 1.8,-1.9 2.7,-4.1 2.7,-6.7 z m -0.9,-29 c 0,-2.4 -0.8,-4.5 -2.4,-6.1 -1.6,-1.7 -3.6,-2.5 -6,-2.5 -2.4,0 -4.4,0.8 -6.1,2.5 -1.6,1.7 -2.4,3.7 -2.4,6.1 0,2.5 0.8,4.6 2.4,6.2 1.6,1.6 3.6,2.4 6.1,2.4 2.4,0 4.4,-0.8 6,-2.4 1.6,-1.7 2.4,-3.7 2.4,-6.2 z"
       id="path1016"
       inkscape:connector-curvature="0"
       style="fill:#ffffff;fill-opacity:1" /></g></svg>