<svg xmlns="http://www.w3.org/2000/svg" id="Layer_1" width="665.1" height="315.5"><style id="style3939">.st0{fill:#00f}</style><g id="g4009" transform="translate(-88.9 -140.7)"><g id="g4005"><path class="st0" d="M406.7 262.8v-43.1h8.3l15.8 28.3h.1v-28.3h8.4v43.1h-8.2l-15.9-28.3h-.2v28.3z" id="path3941" fill="#00f"/><path class="st0" d="M465.2 262.8v-3.1h-.1c-.1.1-.2.3-.3.5-.1.2-.4.5-.9 1s-1 .9-1.7 1.2c-.6.4-1.5.7-2.5 1-1.1.3-2.2.4-3.4.4-3.9 0-6.9-.9-8.8-2.8-1.9-1.9-2.9-4.2-2.9-6.9 0-2.8.8-5 2.5-6.5s4.5-2.7 8.6-3.7c3.7-.9 6.1-1.6 7-2.2.9-.5 1.4-1.3 1.4-2.3 0-1-.5-1.8-1.4-2.5-.9-.7-2.3-1-4.2-1-2.2 0-3.7.5-4.7 1.4-.9 1-1.7 2.3-2.2 3.9l-6.6-2.8c.8-2.7 2.3-5 4.6-6.7 2.3-1.7 5.2-2.6 8.9-2.6 4 0 7.2 1 9.8 3.1 2.5 2.1 3.8 5.3 3.8 9.7v20.7h-6.9zM449 226.1V219h7.5v7.1zm8.2 23.3c-2.1.5-3.4 1.1-4 1.8-.6.7-1 1.4-1 2.3 0 2.2 1.6 3.3 4.8 3.3 2.4 0 4.2-.5 5.4-1.4 1.2-.9 1.8-2.1 1.8-3.4v-5.7h-.1c-.2.3-.3.6-.5.8-.2.2-.8.5-1.9.9-1.1.4-2.6.9-4.5 1.4zm4-23.3V219h7.5v7.1z" id="path3943" fill="#00f"/><path class="st0" d="M479.3 251.1v-14.2h-5v-6.8h5.2v-8h7.6v8h8.2v6.8h-8.1v13.5c0 1.7.3 2.9.9 3.6.6.7 1.7 1 3.5 1h2.6v7.7h-3.4c-4.4 0-7.4-.9-9-2.8-1.7-1.8-2.5-4.7-2.5-8.8z" id="path3945" fill="#00f"/><path class="st0" d="M508.9 262.8l-13.1-32.6h8.3l8.1 21h.1l8.1-21h8.2l-13.1 32.6z" id="path3947" fill="#00f"/><path class="st0" d="M551.5 251.5l5.6 4.9c-3.3 4.8-7.8 7.3-13.5 7.3-4.6 0-8.3-1.6-11.1-4.7-2.9-3.1-4.3-7.3-4.3-12.5s1.4-9.4 4.3-12.5c2.9-3.1 6.5-4.7 10.8-4.7 4.3 0 7.9 1.6 10.7 4.7 2.8 3.1 4.2 7.3 4.2 12.5v2.4h-21.9c.1 2.5.8 4.4 2.1 5.8 1.3 1.3 3 2 5.1 2 1.8 0 3.4-.5 4.6-1.4 1.2-1 2.4-2.3 3.4-3.8zm-15.2-8.6h14.2c-.2-2.1-.9-3.7-2.2-4.9-1.2-1.2-2.9-1.8-5-1.8-2 0-3.6.6-4.8 1.9-1.3 1.3-2 2.9-2.2 4.8z" id="path3949" fill="#00f"/><path class="st0" d="M562.5 262.8v-32.6h7.6v3.4h.1c.6-1.2 1.5-2.2 2.7-3 1.2-.7 2.5-1.1 4-1.1 1 0 2 .2 3 .6l-1.2 7.8c-.9-.3-1.7-.5-2.5-.5-3.7 0-5.6 2.5-5.6 7.4v17.9h-8.1z" id="path3951" fill="#00f"/><path class="st0" d="M583.2 262.8v-44.9h8v25.8h.1l11.9-13.5h10l-11.8 13.2 12.8 19.4h-8.9l-10-14.9h-.1l-4.1 4.7v10.2z" id="path3953" fill="#00f"/><path class="st0" d="M636.6 251.5l5.6 4.9c-3.3 4.8-7.8 7.3-13.5 7.3-4.6 0-8.3-1.6-11.1-4.7-2.9-3.1-4.3-7.3-4.3-12.5s1.4-9.4 4.3-12.5c2.9-3.1 6.5-4.7 10.8-4.7 4.3 0 7.9 1.6 10.7 4.7 2.8 3.1 4.2 7.3 4.2 12.5v2.4h-21.9c.1 2.5.8 4.4 2.1 5.8 1.3 1.3 3 2 5.1 2 1.8 0 3.4-.5 4.6-1.4 1.2-1 2.3-2.3 3.4-3.8zm-15.2-8.6h14.2c-.2-2.1-.9-3.7-2.2-4.9-1.2-1.2-2.9-1.8-5-1.8-2 0-3.6.6-4.8 1.9-1.3 1.3-2 2.9-2.2 4.8z" id="path3955" fill="#00f"/><path class="st0" d="M649.6 251.1v-14.2h-5v-6.8h5.2v-8h7.6v8h8.2v6.8h-8.1v13.5c0 1.7.3 2.9.9 3.6.6.7 1.7 1 3.5 1h2.6v7.7h-3.4c-4.4 0-7.4-.9-9-2.8-1.7-1.8-2.5-4.7-2.5-8.8z" id="path3957" fill="#00f"/><path class="st0" d="M685.1 262.8v-25.9h-5v-6.8h5.2v-4.6c0-2.8.7-4.8 2.2-5.9 1.5-1.2 3.6-1.8 6.4-1.8h6.4v7.1h-4.7c-1 0-1.7.2-2.1.6-.4.4-.6 1.1-.6 2v2.6h8.2v6.8h-8v25.9z" id="path3959" fill="#00f"/><path class="st0" d="M727.6 259.1c-2.9 3-6.5 4.6-11 4.6-4.4 0-8.1-1.5-11-4.6-2.9-3-4.3-7.3-4.3-12.7 0-5.3 1.5-9.5 4.4-12.6 3-3.1 6.6-4.6 10.8-4.6 4.3 0 7.9 1.5 10.8 4.6 3 3.1 4.4 7.3 4.4 12.6.2 5.5-1.2 9.7-4.1 12.7zm-20.2-33V219h7.5v7.1zm3.9 27.8c1.3 1.7 3.1 2.6 5.4 2.6 2.3 0 4.1-.9 5.4-2.6 1.3-1.7 2-4.2 2-7.4s-.7-5.7-2-7.4c-1.3-1.7-3.1-2.6-5.4-2.6-2.3 0-4.1.9-5.4 2.6-1.3 1.7-2 4.2-2 7.4s.6 5.7 2 7.4zm8.4-27.8V219h7.5v7.1z" id="path3961" fill="#00f"/><path class="st0" d="M736.6 262.8v-32.6h7.6v3.4h.1c.6-1.2 1.5-2.2 2.7-3 1.2-.7 2.5-1.1 4-1.1 1 0 2 .2 3 .6l-1.2 7.8c-.9-.3-1.7-.5-2.5-.5-3.7 0-5.6 2.5-5.6 7.4v17.9h-8.1z" id="path3963" fill="#00f"/><path class="st0" d="M406.7 319.8v-43.1h17.5c4.4 0 8 1.2 10.7 3.7 2.7 2.5 4.1 5.8 4.1 10s-1.3 7.5-4 10c-2.6 2.5-6.3 3.7-10.9 3.7H415v15.7zm8.3-23.4h9c1.8 0 3.4-.5 4.6-1.6 1.2-1.1 1.8-2.5 1.8-4.3 0-2.1-.6-3.6-1.8-4.6-1.2-1-2.7-1.4-4.5-1.4h-9v11.9z" id="path3965" fill="#00f"/><path class="st0" d="M439.4 309l7.2-1.8c.6 4.6 3 6.8 7.3 6.8 2 0 3.5-.3 4.7-1 1.2-.6 1.8-1.5 1.8-2.7 0-.9-.5-1.7-1.4-2.1-.9-.5-2.8-1.1-5.7-1.9-.8-.2-1.4-.4-1.8-.5-3.8-1.1-6.5-2.3-8.3-3.8-1.8-1.5-2.6-3.4-2.6-5.8 0-2.7 1.1-5 3.3-7 2.2-2 5.2-3 9-3 7.3 0 11.9 3.2 13.7 9.6l-6.6 2c-.6-1.6-1.4-2.8-2.4-3.7-1-.9-2.6-1.4-4.6-1.4-1.6 0-2.8.3-3.7.9-.9.6-1.4 1.3-1.4 2.1 0 .9.5 1.6 1.6 2.1s3.8 1.4 8.2 2.6c3.8 1 6.4 2.3 7.8 3.9 1.4 1.6 2.1 3.6 2.1 6.1 0 2.6-1.1 5-3.4 7-2.3 2.1-5.6 3.1-9.9 3.1-4.5 0-8-1.1-10.4-3.4-2.5-2.1-4-4.9-4.5-8.1z" id="path3967" fill="#00f"/><path class="st0" d="M472.4 333.6l6.5-15.5-13-31h8.1l8.4 22.1h.1l8.4-22.1h8.1l-18.8 46.5z" id="path3969" fill="#00f"/><path class="st0" d="M501.4 319.8v-44.9h8v25.8h.1l11.9-13.5h10l-11.8 13.2 12.8 19.4h-8.9l-10-14.9h-.1l-4.1 4.7v10.2z" id="path3971" fill="#00f"/><path class="st0" d="M554.8 308.5l5.6 4.9c-3.3 4.8-7.8 7.3-13.5 7.3-4.6 0-8.3-1.6-11.1-4.7-2.9-3.1-4.3-7.3-4.3-12.5s1.4-9.4 4.3-12.5c2.9-3.1 6.5-4.7 10.8-4.7 4.3 0 7.9 1.6 10.7 4.7 2.8 3.1 4.2 7.3 4.2 12.5v2.4h-21.9c.1 2.5.8 4.4 2.1 5.8 1.3 1.3 3 2 5.1 2 1.8 0 3.4-.5 4.6-1.4 1.2-1 2.3-2.2 3.4-3.8zm-15.2-8.6h14.2c-.2-2.1-.9-3.7-2.2-4.9-1.2-1.2-2.9-1.8-5-1.8-2 0-3.6.6-4.8 1.9-1.3 1.3-2.1 2.9-2.2 4.8z" id="path3973" fill="#00f"/><path class="st0" d="M586.9 319.8v-3.1h-.1c-.2.3-.5.7-.9 1.1-.4.5-1.3 1.1-2.8 1.8-1.5.8-3.1 1.1-4.9 1.1-4.3 0-7.7-1.6-10.3-4.7-2.6-3.1-3.8-7.3-3.8-12.6s1.4-9.5 4.2-12.6c2.8-3.1 6.1-4.6 9.8-4.6 1.7 0 3.3.3 4.6 1 1.4.7 2.3 1.3 2.8 2l.8 1h.1v-15.5h8v44.9h-7.5zm-.5-13.4v-6c0-2-.6-3.6-1.9-5-1.3-1.4-3-2-5.1-2-2.3 0-4.2.8-5.4 2.5-1.3 1.7-1.9 4.2-1.9 7.5s.6 5.8 1.9 7.5c1.3 1.7 3.1 2.6 5.4 2.6 2.2 0 3.9-.7 5.1-2.1 1.2-1.3 1.9-3 1.9-5z" id="path3975" fill="#00f"/><path class="st0" d="M621.6 308.5l5.6 4.9c-3.3 4.8-7.8 7.3-13.5 7.3-4.6 0-8.3-1.6-11.1-4.7-2.9-3.1-4.3-7.3-4.3-12.5s1.4-9.4 4.3-12.5c2.9-3.1 6.5-4.7 10.8-4.7 4.3 0 7.9 1.6 10.7 4.7 2.8 3.1 4.2 7.3 4.2 12.5v2.4h-21.9c.1 2.5.8 4.4 2.1 5.8 1.3 1.3 3 2 5.1 2 1.8 0 3.4-.5 4.6-1.4 1.2-1 2.3-2.2 3.4-3.8zm-15.2-8.6h14.2c-.2-2.1-.9-3.7-2.2-4.9-1.2-1.2-2.9-1.8-5-1.8-2 0-3.6.6-4.8 1.9-1.4 1.3-2.1 2.9-2.2 4.8z" id="path3977" fill="#00f"/><path class="st0" d="M632.4 319.8v-44.9h8.3v44.9z" id="path3979" fill="#00f"/><path class="st0" d="M646.6 282.4v-7.6h8v7.6zm0 37.4v-32.6h8v32.6z" id="path3981" fill="#00f"/><path class="st0" d="M658.3 309l7.2-1.8c.6 4.6 3 6.8 7.3 6.8 2 0 3.5-.3 4.7-1 1.2-.6 1.8-1.5 1.8-2.7 0-.9-.5-1.7-1.4-2.1-.9-.5-2.8-1.1-5.7-1.9-.8-.2-1.4-.4-1.8-.5-3.8-1.1-6.5-2.3-8.3-3.8-1.8-1.5-2.6-3.4-2.6-5.8 0-2.7 1.1-5 3.3-7 2.2-2 5.2-3 9-3 7.3 0 11.9 3.2 13.7 9.6l-6.6 2c-.6-1.6-1.4-2.8-2.4-3.7-1-.9-2.6-1.4-4.6-1.4-1.6 0-2.8.3-3.7.9-.9.6-1.4 1.3-1.4 2.1 0 .9.5 1.6 1.6 2.1s3.8 1.4 8.2 2.6c3.8 1 6.4 2.3 7.8 3.9 1.4 1.6 2.1 3.6 2.1 6.1 0 2.6-1.1 5-3.4 7-2.3 2.1-5.6 3.1-9.9 3.1-4.5 0-8-1.1-10.4-3.4-2.5-2.1-4-4.9-4.5-8.1z" id="path3983" fill="#00f"/><path class="st0" d="M690.5 319.8v-44.9h8v25.8h.1l11.9-13.5h10l-11.8 13.2 12.8 19.4h-8.9l-10-14.9h-.1l-4.1 4.7v10.2z" id="path3985" fill="#00f"/><path class="st0" d="M417.8 376.8l-15.6-43.1h8.7l10.6 30.6h.2l10.3-30.6h8.6l-15.4 43.1z" id="path3987" fill="#00f"/><path class="st0" d="M459.8 365.5l5.6 4.9c-3.3 4.8-7.8 7.3-13.5 7.3-4.6 0-8.3-1.6-11.1-4.7-2.9-3.1-4.3-7.3-4.3-12.5s1.4-9.4 4.3-12.5c2.9-3.1 6.5-4.7 10.8-4.7 4.3 0 7.9 1.6 10.7 4.7 2.8 3.1 4.2 7.3 4.2 12.5v2.4h-21.9c.1 2.5.8 4.4 2.1 5.8 1.3 1.3 3 2 5.1 2 1.8 0 3.4-.5 4.6-1.4 1.2-1 2.3-2.2 3.4-3.8zm-15.2-8.6h14.2c-.2-2.1-.9-3.7-2.2-4.9-1.2-1.2-2.9-1.8-5-1.8-2 0-3.6.6-4.8 1.9-1.3 1.3-2 2.9-2.2 4.8z" id="path3989" fill="#00f"/><path class="st0" d="M472.3 365.2V351h-5v-6.8h5.2v-8h7.6v8h8.2v6.8h-8.1v13.5c0 1.7.3 2.9.9 3.6.6.7 1.7 1 3.5 1h2.6v7.7h-3.4c-4.4 0-7.4-.9-9-2.8-1.7-1.8-2.5-4.8-2.5-8.8z" id="path3991" fill="#00f"/><path class="st0" d="M513.2 365.5l5.6 4.9c-3.3 4.8-7.8 7.3-13.5 7.3-4.6 0-8.3-1.6-11.1-4.7-2.9-3.1-4.3-7.3-4.3-12.5s1.4-9.4 4.3-12.5c2.9-3.1 6.5-4.7 10.8-4.7 4.3 0 7.9 1.6 10.7 4.7 2.8 3.1 4.2 7.3 4.2 12.5v2.4H498c.1 2.5.8 4.4 2.1 5.8 1.3 1.3 3 2 5.1 2 1.8 0 3.4-.5 4.6-1.4 1.2-1 2.3-2.2 3.4-3.8zm-15.2-8.6h14.2c-.2-2.1-.9-3.7-2.2-4.9-1.2-1.2-2.9-1.8-5-1.8-2 0-3.6.6-4.8 1.9-1.4 1.3-2.1 2.9-2.2 4.8z" id="path3993" fill="#00f"/><path class="st0" d="M524.1 376.8v-32.6h7.7v3.1h.1c.9-1.1 2.1-2.1 3.7-2.9 1.6-.8 3.2-1.2 4.9-1.2 3.6 0 6.4 1.1 8.5 3.2 2.1 2.2 3.1 5.1 3.1 9v21.4h-8v-19.4c0-2.3-.4-3.9-1.3-5.1-.9-1.1-2.3-1.7-4.4-1.7-2 0-3.5.6-4.6 1.7-1.1 1.1-1.7 2.6-1.7 4.5v19.9h-8z" id="path3995" fill="#00f"/><path class="st0" d="M555.8 366l7.2-1.8c.6 4.6 3 6.8 7.3 6.8 2 0 3.5-.3 4.7-1 1.2-.6 1.8-1.5 1.8-2.7 0-.9-.5-1.7-1.4-2.1-.9-.5-2.8-1.1-5.7-1.9-.8-.2-1.4-.4-1.8-.5-3.8-1.1-6.5-2.3-8.3-3.8-1.8-1.5-2.6-3.4-2.6-5.8 0-2.7 1.1-5 3.3-7 2.2-2 5.2-3 9-3 7.3 0 11.9 3.2 13.7 9.6l-6.6 2c-.6-1.6-1.4-2.8-2.4-3.7-1-.9-2.6-1.4-4.6-1.4-1.6 0-2.8.3-3.7.9-.9.6-1.4 1.3-1.4 2.1 0 .9.5 1.6 1.6 2.1s3.8 1.4 8.2 2.6c3.8 1 6.4 2.3 7.8 3.9 1.4 1.6 2.1 3.6 2.1 6.1 0 2.6-1.1 5-3.4 7-2.3 2.1-5.6 3.1-9.9 3.1-4.5 0-8-1.1-10.4-3.4-2.6-2.1-4-4.8-4.5-8.1z" id="path3997" fill="#00f"/><path class="st0" d="M588.2 376.8v-44.9h8v25.8h.1l11.9-13.5h10l-11.8 13.2 12.8 19.4h-8.9l-10-14.9h-.1l-4.1 4.7v10.2z" id="path3999" fill="#00f"/><path class="st0" d="M639.9 376.8v-3.1h-.1c-.1.1-.2.3-.3.5-.1.2-.4.5-.9 1s-1 .9-1.7 1.2c-.6.4-1.5.7-2.5 1-1.1.3-2.2.4-3.4.4-3.9 0-6.9-.9-8.8-2.8-1.9-1.9-2.9-4.2-2.9-6.9 0-2.8.8-5 2.5-6.5s4.5-2.7 8.6-3.7c3.7-.9 6.1-1.6 7-2.2.9-.5 1.4-1.3 1.4-2.3 0-1-.5-1.8-1.4-2.5-.9-.7-2.3-1-4.2-1-2.2 0-3.7.5-4.7 1.4-.9 1-1.7 2.3-2.2 3.9l-6.6-2.8c.8-2.7 2.3-5 4.6-6.7 2.3-1.7 5.2-2.6 8.9-2.6 4 0 7.2 1 9.8 3.1 2.5 2.1 3.8 5.3 3.8 9.7v20.7h-6.9zm-8.1-13.4c-2.1.5-3.4 1.1-4 1.8-.6.7-1 1.4-1 2.3 0 2.2 1.6 3.3 4.8 3.3 2.4 0 4.2-.5 5.4-1.4 1.2-.9 1.8-2.1 1.8-3.4v-5.7h-.1c-.2.3-.3.6-.5.8-.2.2-.8.5-1.9.9-1 .5-2.5.9-4.5 1.4z" id="path4001" fill="#00f"/><path class="st0" d="M652.2 390.6v-46.5h7.6v3.1h.1c.1-.1.2-.3.3-.5.1-.2.4-.5 1-1 .5-.5 1.1-.9 1.7-1.2.6-.3 1.4-.7 2.5-1 1-.3 2.2-.4 3.4-.4 3.9 0 7.2 1.5 10.1 4.6 2.9 3.1 4.3 7.3 4.3 12.6s-1.4 9.5-4.2 12.6c-2.8 3.1-6.2 4.6-10.2 4.6-1.2 0-2.3-.1-3.3-.4-1-.3-1.8-.6-2.4-1-.6-.4-1.1-.8-1.6-1.2-.5-.4-.8-.7-1-1l-.2-.4h-.1v17h-8zm8-33.5v6.7c0 1.9.6 3.5 1.9 4.8 1.3 1.3 3 1.9 5.1 1.9 2.3 0 4.3-.9 5.8-2.6 1.5-1.7 2.2-4.2 2.2-7.4s-.7-5.7-2.2-7.4c-1.5-1.7-3.4-2.6-5.8-2.6-2.1 0-3.8.6-5.1 1.9-1.2 1.3-1.9 2.8-1.9 4.7z" id="path4003" fill="#00f"/></g><path class="st0" d="M225.5 140.7L88.9 219.6v157.7l136.6 78.9 136.6-78.9V219.6zm107.6 89.1c-3.4 4.6-5.6 6.1-7.9 6.9-5.3 1.8-15.2.9-30.7-.9-41.3-4.6-57.4 3.5-78.7 39.3-6.7 11.3-16.4 18.1-23.6 16.8-7.6-1.4-13.8-12.7-16.7-30.2-4.1-24.9-21-37.2-39.1-42.5l89.1-51.5zM112.2 239c4.3.1 9.5.5 14.8 1.7 22.3 5.2 24.7 19.9 25.5 24.7 6.4 38.3 24.9 47.3 35.4 49.3 2 .4 4 .6 6 .6 10.1 0 20.4-4.6 29.3-12.7 3.3 11.2 4.3 27.6-7.5 45.5-16.8 25.6-16.4 51-8.4 70.8L112.1 364V239zm124.3 184c-10.1-12.6-18.4-35.9-1.3-62.1 22.9-35 11.4-66.3 4.2-79.8 14.2-22.5 22.7-25.4 52.4-22.1 22.9 2.5 36 3.5 46.9-3v108z" id="path4007" fill="#00f"/></g></svg>