<svg xmlns="http://www.w3.org/2000/svg" viewBox="0 0 340.16 340.16"><defs><style>.cls-1{fill:#fff7f5}</style></defs><path class="cls-1" d="M137.3 156.1c18 5.36 34.95 17.67 39.08 42.52 2.9 17.5 9.16 28.8 16.74 30.23 7.2 1.33 16.92-5.56 23.61-16.81 21.24-35.77 37.41-43.84 78.66-39.26 15.57 1.73 25.41 2.66 30.75.88 2.32-.77 4.53-2.32 7.91-6.9l-107.61-62.13z" transform="translate(-56.37 -65.4)"/><path class="cls-1" d="M292.82 195.92c-29.71-3.29-38.24-.4-52.45 22.08 7.24 13.51 18.75 44.8-4.19 79.84-17.15 26.21-8.87 49.57 1.26 62.13l102.32-59.07v-108c-10.89 6.49-24.07 5.56-46.94 3.02zM224.19 239.55c-8.89 8.15-19.21 12.74-29.32 12.74a33.22 33.22 0 0 1-6.05-.56c-10.49-2-29-11-35.41-49.3-.8-4.83-3.24-19.53-25.51-24.72a72.67 72.67 0 0 0-14.77-1.71v124.9l95.16 55c-7.94-19.74-8.35-45.15 8.42-70.76 11.74-17.99 10.74-34.44 7.48-45.59z" transform="translate(-56.37 -65.4)"/><path class="cls-1" d="M56.37 65.4v340.16h340.15V65.4zM363 314.34l-136.6 78.87-136.55-78.87V156.61l136.59-78.86L363 156.61z" transform="translate(-56.37 -65.4)"/></svg>
