<svg xmlns="http://www.w3.org/2000/svg" width="514.929" height="516.921" viewBox="0 0 136.242 136.768"><defs><clipPath id="a"><path d="M0 3241h1253V0H0z"/></clipPath></defs><g clip-path="url(#a)" transform="matrix(.35278 0 0 -.35278 -155.686 1129.38)" fill="#fff7f5"><path d="M553.846 3088.775c17.792-9.258 25.573-25.009 31.906-37.84 8.356-16.929 13.716-27.778 39.002-27.888 22.98 40.042 52.125 38.167 73.768 36.782 17.334-1.114 28.97-1.84 40.657 14.972l-104.77 60.487zm142.641-60.641c-18.848 1.208-30.928 1.983-43.647-19.897 23.143-39.978 6.904-64.261-5.156-82.295-9.67-14.46-16.141-24.17-7.393-42.771l104.76 60.483v93.14c-16.856-10.694-34.325-9.578-48.564-8.66m-70.723-36.818c-46.009 0-58.906 26.139-68.493 45.563-7.716 15.632-12.903 26.102-33.502 27.776v-121.001l80.662-46.57c-.855 20.025 8.9 34.624 16.851 46.513 10.495 15.694 17.222 25.756 4.686 47.72h-.204"/><path d="M776.812 2925.317L634.41 2843.1l-142.401 82.217-.001 164.43 142.401 82.216 142.401-82.216zm-343-119.13h401.194v402.688H433.813z"/></g></svg>